<svg width="616" height="534" viewBox="0 0 616 534" fill="none" xmlns="http://www.w3.org/2000/svg">
<path d="M210.781 52.4951C212.675 51.0531 214.581 49.6351 216.523 48.2532" stroke="#DDDDDD" stroke-width="3" stroke-linecap="round" stroke-linejoin="round"/>
<path d="M228.005 40.6106C259.613 20.7226 296.053 10.1621 333.24 10.1123C348.81 10.1053 364.326 11.9647 379.466 15.652" stroke="#DDDDDD" stroke-width="3" stroke-linecap="round" stroke-linejoin="round" stroke-dasharray="11.57 11.57"/>
<path d="M386.036 17.3944C388.316 18.0353 390.589 18.7162 392.854 19.4372" stroke="#DDDDDD" stroke-width="3" stroke-linecap="round" stroke-linejoin="round"/>
<path d="M228.94 474.761C226.916 473.559 224.903 472.237 222.927 470.927" stroke="#DDDDDD" stroke-width="3" stroke-linecap="round" stroke-linejoin="round"/>
<path d="M211.432 462.732C169.8 431.068 138.324 383.638 123.693 328.001" stroke="#DDDDDD" stroke-width="3" stroke-linecap="round" stroke-linejoin="round" stroke-dasharray="11.9 11.9"/>
<path d="M121.917 321.056C121.373 318.724 120.856 316.381 120.367 314.026" stroke="#DDDDDD" stroke-width="3" stroke-linecap="round" stroke-linejoin="round"/>
<path d="M549.701 291.747C549.409 294.15 549.085 296.53 548.73 298.885" stroke="#DDDDDD" stroke-width="3" stroke-linecap="round" stroke-linejoin="round"/>
<path d="M546.161 313.377C542.726 330.197 537.683 346.638 531.104 362.465" stroke="#DDDDDD" stroke-width="3" stroke-linecap="round" stroke-linejoin="round" stroke-dasharray="12.25 12.25"/>
<path d="M528.192 369.254C527.206 371.441 526.196 373.608 525.162 375.755" stroke="#DDDDDD" stroke-width="3" stroke-linecap="round" stroke-linejoin="round"/>
<path d="M171.919 379.961L106.884 389.719C105.722 389.888 104.539 389.612 103.566 388.946C102.592 388.28 101.898 387.271 101.616 386.114L94.0873 350.448C93.9641 349.89 93.9574 349.312 94.0675 348.752C94.1775 348.191 94.402 347.66 94.7264 347.192C95.0509 346.725 95.4681 346.331 95.9513 346.037C96.4345 345.743 96.973 345.555 97.532 345.485L162.567 335.74C163.729 335.571 164.912 335.846 165.885 336.513C166.858 337.179 167.553 338.188 167.835 339.345L175.364 374.926C175.498 375.489 175.514 376.075 175.409 376.644C175.304 377.214 175.082 377.754 174.756 378.23C174.431 378.706 174.01 379.106 173.52 379.404C173.031 379.703 172.485 379.893 171.919 379.961V379.961Z" fill="#F9F9F9" stroke="#EDEDED" stroke-width="2" stroke-linecap="round" stroke-linejoin="round"/>
<path d="M103.711 351.302C104.41 351.169 142.479 363.811 142.479 363.811L160.235 341.075" stroke="#EDEDED" stroke-width="2" stroke-linecap="round" stroke-linejoin="round"/>
<path d="M113.536 377.258L134.725 361.251" stroke="#EDEDED" stroke-width="2" stroke-linecap="round" stroke-linejoin="round"/>
<path d="M152.659 361.251L168.782 366.43" stroke="#EDEDED" stroke-width="2" stroke-linecap="round" stroke-linejoin="round"/>
<path d="M199.252 435.334L182.324 438.567C182.096 438.609 181.884 438.713 181.709 438.867L171.055 448.312C170.872 448.47 170.65 448.574 170.413 448.612C170.176 448.65 169.933 448.62 169.712 448.527C169.49 448.434 169.298 448.28 169.157 448.083C169.016 447.886 168.931 447.654 168.912 447.411L167.101 418.943C167.083 418.703 167.132 418.463 167.244 418.25C167.355 418.038 167.523 417.861 167.728 417.742C167.908 417.636 168.112 417.581 168.32 417.581C168.528 417.581 168.732 417.636 168.912 417.742L199.595 432.883C199.84 433.002 200.042 433.197 200.171 433.441C200.299 433.684 200.348 433.963 200.309 434.236C200.271 434.51 200.148 434.764 199.958 434.961C199.767 435.158 199.52 435.289 199.252 435.334V435.334Z" fill="white" stroke="#EDEDED" stroke-width="2" stroke-linecap="round" stroke-linejoin="round"/>
<path d="M199.252 435.334L182.324 438.567C182.096 438.609 181.884 438.713 181.709 438.867L167.728 417.742C167.908 417.636 168.112 417.581 168.32 417.581C168.528 417.581 168.732 417.636 168.912 417.742L199.595 432.883C199.84 433.002 200.042 433.197 200.171 433.441C200.299 433.684 200.348 433.963 200.309 434.236C200.271 434.51 200.148 434.764 199.958 434.961C199.767 435.158 199.52 435.289 199.252 435.334V435.334Z" fill="#EDEDED" stroke="#EDEDED" stroke-width="2" stroke-linecap="round" stroke-linejoin="round"/>
<path d="M200.495 265.959C205.916 268.723 212.936 263.556 220.737 256.562L212.285 248.871C212.285 248.871 199.027 261.417 200.495 265.959Z" fill="#A7CAF0"/>
<path d="M272.763 232.877L253.195 273.361H212.036L205.182 253.918L228.478 232.877H272.763Z" fill="#FEBD9D"/>
<path d="M240.872 232.877L221.601 263.448" stroke="#EF8A66" stroke-width="0.75" stroke-linecap="round" stroke-linejoin="round"/>
<path d="M233.533 236.038C219.577 244.125 200.495 265.959 200.495 265.959L195.369 276.293L192.386 282.302H91.1279C88.7604 273.638 86.7244 262.354 85.2092 253.209C84.0254 246.132 83.2678 240.34 82.96 238.068L82.8298 237.047C80.2493 239.366 78.9945 239.45 78.9945 239.45L74.2595 252.152L73.8215 253.354C57.0122 241.938 26.2584 239.919 26.2584 239.919L30.3897 225.751C29.1485 222.839 28.802 219.614 29.3954 216.498C30.0701 212.954 39.327 196.515 48.655 182.72C52.3328 177.108 56.412 171.778 60.8594 166.773C61.2264 166.389 61.6052 166.016 61.984 165.668C73.2415 155.153 91.8974 156.679 104.161 157.809C105.984 157.977 107.712 158.097 109.322 158.17C112.946 158.363 116.577 158.363 120.201 158.17C123.172 158.013 124.806 157.785 124.806 157.785C125.184 156.031 125.54 154.18 125.895 152.149C128.108 139.015 129.351 121.483 127.374 109.959L158.531 124.078C159.063 129.822 161.147 142.428 162.579 150.719C163.384 155.358 163.964 158.65 163.964 158.65C166.474 158.182 168.841 157.761 171.067 157.376C202.696 151.933 210.841 153.976 219.6 169.633C219.837 170.042 220.062 170.475 220.299 170.931C225.697 181.746 229.378 203.376 231.426 218.661C232.882 228.707 233.533 236.038 233.533 236.038Z" fill="#C3DCF8"/>
<path d="M233.533 236.038C219.849 243.981 201.205 265.154 200.506 265.935C200.755 265.406 204.827 256.851 205.241 253.918C205.656 250.986 204.212 242.31 201.974 234.151L231.568 218.71C232.882 228.707 233.533 236.038 233.533 236.038Z" fill="#C3DCF8"/>
<path d="M128.156 240.712C127.931 252.224 101.367 253.846 85.2447 253.209C84.0609 246.132 83.3033 240.34 82.9956 238.068L82.8654 237.047C88.7244 231.013 93.5672 224.042 97.2006 216.414C106.671 222.976 94.5253 229.717 94.0636 232.877C92.8089 241.541 128.475 224.273 128.156 240.712Z" fill="#A7CAF0"/>
<path d="M220.417 170.979C211.184 167.723 200.814 167.831 193.629 179.475C177.447 205.696 147.072 226.148 116.685 195.193C112.53 190.847 107.984 186.905 103.107 183.417C85.1499 170.943 69.9624 173.467 48.726 182.708C52.4038 177.096 56.483 171.766 60.9304 166.762C61.2974 166.377 61.6762 166.005 62.055 165.656C73.3124 155.141 91.9683 156.668 104.232 157.797C106.055 157.965 107.783 158.086 109.393 158.158C113.017 158.351 116.648 158.351 120.272 158.158C123.243 158.001 124.877 157.773 124.877 157.773C125.255 156.019 125.611 154.168 125.966 152.137C128.179 139.003 129.422 121.471 127.445 109.947L158.602 124.066C159.134 129.81 161.218 142.416 162.65 150.707C163.455 155.346 164.035 158.638 164.035 158.638C166.545 158.17 168.912 157.749 171.138 157.365C202.767 151.921 210.912 153.964 219.671 169.622C219.955 170.09 220.18 170.523 220.417 170.979Z" fill="#D0E5F7"/>
<path d="M171.185 157.425C171.09 165.548 170.226 180.352 166.746 190.819C162.248 204.398 156.944 198.882 151.12 193.523C145.853 188.644 126.652 172.409 109.405 158.194C113.029 158.387 116.66 158.387 120.284 158.194C123.255 158.037 124.888 157.809 124.888 157.809C125.267 156.055 125.622 154.204 125.978 152.173C138.49 151.344 153.5 150.527 162.674 150.743C163.479 155.382 164.059 158.674 164.059 158.674C166.545 158.182 168.912 157.809 171.185 157.425Z" fill="#83ADDF"/>
<path d="M158.921 188.475C158.921 188.475 132.263 170.066 120.284 158.181C123.255 158.025 124.888 157.797 124.888 157.797C127.741 144.494 129.73 123.249 127.457 109.971L147.711 119.139L158.614 124.09C159.004 128.332 160.259 136.383 161.455 143.617C162.78 151.62 164.047 158.662 164.047 158.662C165.018 181.998 158.921 188.475 158.921 188.475Z" fill="#FEBD9D"/>
<path d="M200.495 265.959C200.743 265.43 204.815 256.875 205.23 253.942C205.644 251.01 204.2 242.334 201.962 234.175C201.844 233.754 201.726 233.322 201.596 232.901" stroke="#83ADDF" stroke-width="0.75" stroke-linecap="round" stroke-linejoin="round"/>
<path d="M161.443 143.654C140.407 144.963 142.775 122.011 142.953 121.435L147.688 119.176L158.59 124.126C158.992 128.368 160.247 136.419 161.443 143.654Z" fill="#F4A789"/>
<path d="M26.3294 239.895C25.7375 241.661 25.7375 243.584 38.9363 247.357L40.9724 238.573C40.9724 238.573 28.9692 235.281 26.3294 239.895Z" fill="#A7CAF0"/>
<path d="M33.5622 235.269C30.4607 245.531 19.6412 279.898 19.6412 279.898C16.7055 292.504 53.532 300.735 66.6361 279.322L73.8452 244.846C61.9314 236.976 47.6796 233.587 33.5622 235.269V235.269Z" fill="#FEBD9D"/>
<path d="M94.111 222.219C94.0651 222.287 94.0255 222.359 93.9926 222.435C92.4301 224.97 90.69 227.554 88.796 230.222L88.6658 230.402C86.89 232.754 84.9516 234.974 82.8654 237.047C80.2848 239.366 79.03 239.45 79.03 239.45L73.8926 253.33C73.3717 252.981 72.839 252.633 72.2827 252.296C62.9074 246.528 50.0045 243.356 40.3214 241.673C37.1371 241.121 34.2961 240.736 32.0352 240.472C28.5549 240.051 26.4005 239.907 26.4005 239.907L30.5318 225.739C29.2906 222.827 28.944 219.602 29.5374 216.487C30.2122 212.942 39.4691 196.503 48.7971 182.708C52.4749 177.096 56.5541 171.766 61.0015 166.762C61.3685 166.377 61.7473 166.005 62.1261 165.656C78.083 158.074 98.8223 159.936 102.906 181.794C103.013 182.335 103.108 182.876 103.179 183.417C105.451 197.969 101.912 209.517 94.111 222.219Z" fill="#C3DCF8"/>
<path d="M103.107 183.417C85.1499 170.943 69.9624 173.467 48.726 182.708C52.4038 177.096 56.483 171.766 60.9304 166.762C61.2974 166.377 61.6762 166.005 62.055 165.656C78.0119 158.074 98.7512 159.936 102.835 181.794C102.942 182.371 103.036 182.912 103.107 183.417Z" fill="#D0E5F7"/>
<path d="M37.0187 228.744C48.1341 228.744 59.0009 233.358 60.8357 234.235" stroke="#83ADDF" stroke-width="0.75" stroke-linecap="round" stroke-linejoin="round"/>
<path d="M82.8654 237.047C84.9516 234.974 86.8899 232.754 88.6657 230.402L88.7959 230.222C90.667 227.724 92.4019 225.125 93.9926 222.435C94.0254 222.359 94.0651 222.287 94.111 222.218C95.3658 220.068 96.4075 218.085 97.2006 216.414C97.8516 215.117 98.3251 214.011 98.6566 213.194" stroke="#83ADDF" stroke-width="0.75" stroke-linecap="round" stroke-linejoin="round"/>
<path d="M179.092 227.013C179.519 232.697 176.228 234.151 176.228 234.151C176.678 247.97 172.676 254.579 166.024 256.334C159.371 258.088 142.183 261.789 142.183 261.789C140.402 262.525 138.683 263.409 137.046 264.433C135.128 265.539 132.749 266.957 129.943 268.639C121.396 273.71 107.937 278.444 91.9447 287C63.6058 302.165 43.411 293.946 42.0615 277.856C39.623 248.403 76.4731 246.48 89.9324 244.209C99.6865 242.551 114.791 238.621 124.155 236.422C127.706 235.605 130.369 235.028 131.624 234.908C136.122 234.5 145.45 229.501 161.821 224.273C178.193 219.046 191.415 216.018 191.415 219.683C191.415 223.348 179.092 227.013 179.092 227.013Z" fill="#FEBD9D"/>
<path d="M161.845 224.273C178.205 219.022 191.439 216.018 191.439 219.683C191.439 223.348 179.045 227.049 179.045 227.049C179.471 232.733 176.18 234.187 176.18 234.187C176.63 248.006 172.629 254.615 165.976 256.37" stroke="#EF8A66" stroke-width="0.75" stroke-linecap="round" stroke-linejoin="round"/>
<path d="M48.9272 257.92C56.0297 250.938 67.4056 247.922 77.0176 246.216" stroke="#EF8A66" stroke-width="0.75" stroke-linecap="round" stroke-linejoin="round"/>
<path d="M137.046 264.433C135.128 265.539 132.749 266.957 129.943 268.639C123.35 261.177 119.929 249.616 124.155 236.386C127.706 235.569 130.369 234.992 131.624 234.872C128.57 243.344 128.002 257.163 137.046 264.433Z" fill="#683F1D"/>
<path d="M179.092 227.013L168.971 230.342" stroke="#EF8A66" stroke-width="0.75" stroke-linecap="round" stroke-linejoin="round"/>
<path d="M176.228 234.151L170.001 236.446" stroke="#EF8A66" stroke-width="0.75" stroke-linecap="round" stroke-linejoin="round"/>
<path d="M170.676 243.079L175.979 241.613" stroke="#EF8A66" stroke-width="0.75" stroke-linecap="round" stroke-linejoin="round"/>
<path d="M134.654 251.912C134.654 253.63 134.152 255.31 133.212 256.739C132.272 258.167 130.935 259.281 129.371 259.938C127.807 260.596 126.086 260.768 124.426 260.433C122.766 260.098 121.241 259.27 120.044 258.055C118.847 256.84 118.032 255.292 117.702 253.607C117.372 251.921 117.541 250.174 118.189 248.587C118.837 246.999 119.934 245.642 121.341 244.688C122.748 243.733 124.403 243.224 126.096 243.224C128.366 243.224 130.543 244.139 132.148 245.768C133.753 247.398 134.654 249.607 134.654 251.912V251.912Z" fill="white" stroke="#683F1D" stroke-linecap="round" stroke-linejoin="round"/>
<path d="M253.195 91.1167V270.501H1.22217V91.1167C1.22062 88.7407 1.68028 86.3877 2.5749 84.1921C3.46951 81.9965 4.78154 80.0014 6.43601 78.3208C8.09048 76.6402 10.055 75.307 12.2172 74.3973C14.3794 73.4877 16.6971 73.0196 19.0376 73.0196H235.38C237.72 73.0196 240.038 73.4877 242.2 74.3973C244.362 75.307 246.327 76.6402 247.981 78.3208C249.636 80.0014 250.948 81.9965 251.842 84.1921C252.737 86.3877 253.197 88.7407 253.195 91.1167Z" stroke="#DDDDDD" stroke-width="2" stroke-linecap="round" stroke-linejoin="round"/>
<path d="M253.195 91.1167V91.9218H1.22217V91.1167C1.22062 88.7407 1.68028 86.3877 2.5749 84.1921C3.46951 81.9965 4.78154 80.0014 6.43601 78.3208C8.09048 76.6402 10.055 75.307 12.2172 74.3973C14.3794 73.4877 16.6971 73.0196 19.0376 73.0196H235.38C237.72 73.0196 240.038 73.4877 242.2 74.3973C244.362 75.307 246.327 76.6402 247.981 78.3208C249.636 80.0014 250.948 81.9965 251.842 84.1921C252.737 86.3877 253.197 88.7407 253.195 91.1167Z" stroke="#DDDDDD" stroke-width="2" stroke-linecap="round" stroke-linejoin="round"/>
<path d="M219.091 82.4767C219.091 83.1279 218.901 83.7645 218.545 84.3059C218.188 84.8474 217.682 85.2694 217.089 85.5186C216.497 85.7678 215.844 85.833 215.215 85.706C214.586 85.5789 214.008 85.2653 213.554 84.8049C213.101 84.3444 212.792 83.7577 212.667 83.119C212.542 82.4803 212.606 81.8183 212.851 81.2167C213.097 80.615 213.513 80.1008 214.046 79.739C214.579 79.3772 215.206 79.1841 215.848 79.1841C216.274 79.1841 216.696 79.2693 217.089 79.4347C217.483 79.6002 217.84 79.8427 218.141 80.1485C218.443 80.4542 218.682 80.8172 218.845 81.2167C219.008 81.6161 219.091 82.0443 219.091 82.4767V82.4767Z" fill="#DDDDDD"/>
<path d="M226.419 85.7692C228.21 85.7692 229.662 84.2951 229.662 82.4767C229.662 80.6582 228.21 79.1841 226.419 79.1841C224.627 79.1841 223.175 80.6582 223.175 82.4767C223.175 84.2951 224.627 85.7692 226.419 85.7692Z" fill="#EDEDED"/>
<path d="M240.233 82.4767C240.233 83.1284 240.043 83.7655 239.686 84.3072C239.329 84.8489 238.822 85.2709 238.228 85.5198C237.635 85.7686 236.982 85.8331 236.353 85.7051C235.723 85.5771 235.145 85.2623 234.692 84.8006C234.239 84.3389 233.931 83.7511 233.807 83.1116C233.683 82.4721 233.749 81.8097 233.997 81.2083C234.244 80.6069 234.661 80.0935 235.196 79.7332C235.731 79.3728 236.36 79.1817 237.002 79.1841C237.427 79.1841 237.848 79.2694 238.241 79.435C238.634 79.6006 238.991 79.8433 239.291 80.1492C239.591 80.4551 239.829 80.8182 239.991 81.2176C240.152 81.617 240.235 82.0449 240.233 82.4767Z" fill="#DDDDDD"/>
<path d="M192.054 239.775C196.103 235.413 202.862 234.872 202.862 234.872L210.687 243.079C210.687 243.079 212.912 218.842 202.862 185.592C200.956 201.826 195.073 227.95 192.054 239.775Z" fill="#DDDDDD" stroke="#DDDDDD" stroke-linecap="round" stroke-linejoin="round"/>
<path d="M269.259 180.665C280.563 217.075 280.019 243.079 280.019 243.079H210.687C210.687 243.079 201.347 206.945 202.862 185.592C202.862 185.592 201.548 180.557 205.892 180.112C210.237 179.667 269.259 180.665 269.259 180.665Z" fill="#F9F9F9" stroke="#DDDDDD" stroke-linecap="round" stroke-linejoin="round"/>
<path d="M213.705 180.304C213.699 180.204 213.699 180.104 213.705 180.004C213.806 179.031 214.182 178.109 214.788 177.349C215.394 176.589 216.204 176.024 217.121 175.722C218.037 175.419 219.019 175.393 219.95 175.646C220.881 175.898 221.719 176.42 222.364 177.146C223.009 177.873 223.432 178.773 223.583 179.739C223.735 180.705 223.607 181.694 223.215 182.588C222.824 183.481 222.186 184.241 221.378 184.774C220.571 185.307 219.628 185.591 218.665 185.592" stroke="#EDEDED" stroke-linecap="round" stroke-linejoin="round"/>
<path d="M248.934 180.304C249.061 179.342 249.459 178.436 250.079 177.697C250.7 176.957 251.517 176.415 252.433 176.134C253.349 175.853 254.326 175.846 255.246 176.114C256.166 176.382 256.99 176.912 257.621 177.643C258.252 178.374 258.662 179.273 258.802 180.234C258.943 181.195 258.808 182.177 258.414 183.062C258.019 183.947 257.382 184.698 256.579 185.226C255.775 185.753 254.839 186.035 253.882 186.036C253.05 186.035 252.234 185.811 251.514 185.387" stroke="#EDEDED" stroke-linecap="round" stroke-linejoin="round"/>
<path d="M227.851 180.088C227.906 178.77 228.443 177.521 229.359 176.585C230.274 175.649 231.501 175.094 232.799 175.029C234.165 175.173 235.43 175.825 236.35 176.861C237.269 177.896 237.778 179.241 237.778 180.635C237.778 182.029 237.269 183.374 236.35 184.409C235.43 185.444 234.165 186.097 232.799 186.241C231.683 186.223 230.611 185.796 229.781 185.039" stroke="#EDEDED" stroke-linecap="round" stroke-linejoin="round"/>
<path d="M238.41 180.208C238.535 179.247 238.93 178.342 239.549 177.603C240.167 176.864 240.982 176.321 241.896 176.04C242.81 175.758 243.784 175.75 244.703 176.016C245.621 176.282 246.445 176.811 247.075 177.539C247.706 178.268 248.116 179.166 248.256 180.125C248.397 181.084 248.263 182.064 247.87 182.948C247.476 183.831 246.841 184.581 246.038 185.108C245.236 185.634 244.302 185.915 243.346 185.916" stroke="#EDEDED" stroke-linecap="round" stroke-linejoin="round"/>
<path d="M265.542 192.369H216.961V198.005H265.542V192.369Z" stroke="#DDDDDD" stroke-linecap="round" stroke-linejoin="round"/>
<path d="M228.999 236.939L228.384 232.192L225.259 207.762L224.738 203.749" stroke="#EDEDED" stroke-linecap="round" stroke-linejoin="round"/>
<path d="M244.767 236.939L244.116 231.856L241.062 208.075L240.505 203.749" stroke="#EDEDED" stroke-linecap="round" stroke-linejoin="round"/>
<path d="M256.285 203.737L260.534 236.951" stroke="#EDEDED" stroke-linecap="round" stroke-linejoin="round"/>
<path d="M266.063 210.382H241.358H225.59H218.677" stroke="#EDEDED" stroke-linecap="round" stroke-linejoin="round"/>
<path d="M268.465 224.886H243.216H227.449H221.068" stroke="#EDEDED" stroke-linecap="round" stroke-linejoin="round"/>
<path d="M230.088 204.89C222.252 208.952 218.476 225.884 231.769 227.013C251.36 228.671 252.295 204.181 235.131 206.489" fill="#F9F9F9"/>
<path d="M230.088 204.89C222.252 208.952 218.476 225.884 231.769 227.013C251.36 228.671 252.295 204.181 235.131 206.489" stroke="#DDDDDD" stroke-width="2" stroke-linecap="round" stroke-linejoin="round"/>
<path d="M243.216 224.886H227.449L225.59 210.382H241.358L243.216 224.886Z" fill="#EDEDED"/>
<path d="M271.543 222.699C271.875 228.215 282.197 222.146 281.487 217.316C280.777 212.485 271.153 216.306 271.543 222.699Z" fill="#FEBD9D" stroke="#EF8A66" stroke-width="0.75" stroke-linecap="round" stroke-linejoin="round"/>
<path d="M269.791 215.273C270.17 220.801 281.794 214.732 281.037 209.889C280.279 205.047 269.353 208.892 269.791 215.273Z" fill="#FEBD9D" stroke="#EF8A66" stroke-width="0.75" stroke-linecap="round" stroke-linejoin="round"/>
<path d="M268.974 209.733C269.377 215.249 281.842 209.18 281.025 204.35C280.208 199.519 268.513 203.34 268.974 209.733Z" fill="#FEBD9D" stroke="#EF8A66" stroke-width="0.75" stroke-linecap="round" stroke-linejoin="round"/>
<path d="M267.223 202.896C267.637 207.907 280.492 202.403 279.652 198.017C278.812 193.631 266.737 197.104 267.223 202.896Z" fill="#FEBD9D" stroke="#EF8A66" stroke-width="0.75" stroke-linecap="round" stroke-linejoin="round"/>
<path d="M230.088 204.89C222.252 208.952 218.476 225.884 231.769 227.013C251.36 228.671 252.295 204.181 235.131 206.489" stroke="#DDDDDD" stroke-width="2" stroke-linecap="round" stroke-linejoin="round"/>
<path d="M183.307 76.3001C182.277 84.9881 170.83 90.0832 170.83 90.0832L139.07 118.226C135.815 123.502 126.948 126.157 121.55 121.747C118.39 119.176 116.425 114.189 117.49 105.885C116.606 105.885 115.742 105.622 115.004 105.128C111.346 102.833 109.085 95.5147 114.578 86.8267C114.187 87.2112 106.872 94.4333 99.3432 92.2462C98.0484 91.8951 96.8419 91.269 95.8032 90.4093C94.7645 89.5497 93.9174 88.476 93.3179 87.2593C90.9504 82.3445 91.779 74.1491 98.5382 62.9135C103.344 54.8984 110.032 53.4564 115.762 54.9585C122.249 56.6408 127.505 62.0483 127.505 65.9778C128.936 64.1948 130.596 62.6145 132.441 61.2793C134.974 59.4888 138.111 58.2751 140.916 60.0055C140.916 60.0055 150.789 54.61 156.4 57.9867C163.384 62.1685 161.845 65.0765 168.64 65.5332C173.695 65.8696 181.661 67.1674 183.117 72.9835C183.394 74.0657 183.459 75.1927 183.307 76.3001Z" fill="#DD6819"/>
<path d="M127.505 65.9778L114.602 86.8027C113.68 87.678 112.695 88.4814 111.654 89.206C108.754 91.2488 104.114 93.5801 99.3787 92.2102C98.0839 91.8591 96.8774 91.233 95.8387 90.3733C94.8 89.5136 93.9529 88.44 93.3534 87.2233C108.056 86.9108 113.229 82.741 110.21 74.5337C107.405 66.8911 104.492 57.2898 115.797 54.9225C120.22 56.0405 124.063 58.8131 126.558 62.6852C127.146 63.6822 127.472 64.816 127.505 65.9778V65.9778Z" fill="#CC5E0D"/>
<path d="M183.307 76.3001C182.277 84.9882 170.83 90.0832 170.83 90.0832L139.07 118.226C135.815 123.502 126.948 126.157 121.55 121.747C119.684 117.203 119.225 112.189 120.236 107.374C121.247 102.559 123.679 98.1706 127.209 94.7938C133.719 88.7854 128.949 84.3032 129.576 76.3962C130.204 68.4893 144.456 56.3164 154.66 67.2396C162.662 75.8074 177.719 65.4491 183.176 72.9835C183.434 74.0697 183.478 75.1966 183.307 76.3001V76.3001Z" fill="#CC5E0D"/>
<path d="M163.834 133.8C149.558 132.31 135.069 117.277 135.069 117.277C129.623 123.574 118.887 114.165 124.202 106.33C127.682 101.175 133.127 104.239 134.453 107.051C136.662 105.603 138.282 103.395 139.015 100.831C139.747 98.2683 139.544 95.5226 138.442 93.0994C137.274 90.1242 136.769 86.9233 136.963 83.7264C141.792 76.2761 154.601 74.5697 154.601 74.5697C156.494 76.5959 158.796 78.1821 161.351 79.2193C163.905 80.2565 166.65 80.72 169.397 80.578C169.397 80.578 173.789 89.2901 177.364 98.1464C177.435 98.3387 177.53 98.555 177.601 98.7472C178.607 101.271 179.542 103.794 180.276 106.101C180.347 106.33 180.406 106.534 180.477 106.75C181.065 108.573 181.501 110.442 181.779 112.338C182.928 121.867 178.098 135.35 163.834 133.8Z" fill="#FEBD9D"/>
<path d="M169.764 94.1689C169.764 94.4779 169.855 94.7799 170.024 95.0368C170.193 95.2937 170.433 95.4939 170.714 95.6122C170.996 95.7304 171.305 95.7613 171.604 95.701C171.902 95.6408 172.176 95.492 172.391 95.2735C172.607 95.055 172.753 94.7767 172.813 94.4737C172.872 94.1706 172.842 93.8565 172.725 93.5711C172.609 93.2856 172.411 93.0417 172.158 92.87C171.905 92.6984 171.608 92.6067 171.303 92.6067C170.896 92.6099 170.506 92.7755 170.219 93.0678C169.931 93.36 169.768 93.7555 169.764 94.1689V94.1689Z" fill="#683F1D"/>
<path d="M161.845 97.3052C162.695 97.3052 163.384 96.6058 163.384 95.7431C163.384 94.8803 162.695 94.1809 161.845 94.1809C160.995 94.1809 160.306 94.8803 160.306 95.7431C160.306 96.6058 160.995 97.3052 161.845 97.3052Z" fill="#683F1D"/>
<path d="M160.034 106.318C163.119 107.888 166.54 108.652 169.989 108.541C169.989 108.541 169.327 114.393 164.378 112.831C160.058 111.473 160.034 106.318 160.034 106.318Z" fill="white" stroke="#EF8A66" stroke-width="0.75" stroke-linecap="round" stroke-linejoin="round"/>
<path d="M155.157 91.1527C155.725 93.0754 162.839 91.1527 162.058 88.0284C161.277 84.904 154.34 88.485 155.157 91.1527Z" fill="#DD6819"/>
<path d="M167.243 87.2833C167.137 89.3742 174.417 89.5184 174.417 87.7159C174.417 86.0817 167.433 83.9067 167.243 87.2833Z" fill="#DD6819"/>
<path d="M117.49 105.885C118.372 99.9712 121.191 94.5314 125.492 90.4437" stroke="#FF79A0" stroke-width="0.75" stroke-linecap="round" stroke-linejoin="round"/>
<path d="M140.916 59.9935C138.679 61.808 135.329 67.7082 134.027 70.3639" stroke="#FF79A0" stroke-width="0.75" stroke-linecap="round" stroke-linejoin="round"/>
<path d="M138.928 76.3121C141.567 69.1742 146.646 65.9538 149.025 68.6936C151.404 71.4334 154.601 74.5577 154.601 74.5577" stroke="#FF79A0" stroke-width="0.75" stroke-linecap="round" stroke-linejoin="round"/>
<path d="M169.397 80.6381C172.357 80.518 175.174 77.4537 176.026 75.6752" stroke="#FF79A0" stroke-width="0.75" stroke-linecap="round" stroke-linejoin="round"/>
<path d="M110.174 85.5169C99.2603 87.2473 93.8742 70.8445 102.74 57.8786" stroke="#FF79A0" stroke-width="0.75" stroke-linecap="round" stroke-linejoin="round"/>
<path d="M121.112 70.3639C123.397 64.3555 115.774 54.6581 111.642 61.3153C106.907 68.9339 113.82 79.0399 121.112 78.1386" stroke="#FF79A0" stroke-width="0.75" stroke-linecap="round" stroke-linejoin="round"/>
<path d="M114.602 86.8027C117.215 78.9204 121.637 71.7823 127.505 65.9778C127.505 65.9778 124.19 72.8033 126.617 77.658C122.405 80.4153 118.39 83.4711 114.602 86.8027V86.8027Z" fill="#FED81D"/>
<path d="M125.492 111.473C127.694 107.519 131.517 107.736 133.53 111.064" stroke="#EF8A66" stroke-width="0.75" stroke-linecap="round" stroke-linejoin="round"/>
<path d="M132.725 110.007C128.191 108.805 128.179 114.982 132.997 114.105" stroke="#EF8A66" stroke-width="0.75" stroke-linecap="round" stroke-linejoin="round"/>
<path d="M165.657 93.0393C165.586 96.6443 168.427 98.7112 170.297 99.7086C172.167 100.706 171.552 103.314 171.422 103.698" stroke="#EF8A66" stroke-width="0.75" stroke-linecap="round" stroke-linejoin="round"/>
<path d="M135.081 117.325C135.807 116.373 136.411 115.331 136.88 114.225" stroke="#EF8A66" stroke-width="0.75" stroke-linecap="round" stroke-linejoin="round"/>
<path d="M155.583 105.14C154.399 107.423 150.765 107.844 147.297 106.101C143.829 104.359 142.017 101.078 143.154 98.7953C144.29 96.5121 147.972 96.0915 151.44 97.846C154.908 99.6004 156.72 102.905 155.583 105.14Z" fill="#F4AF90"/>
<path d="M180.477 106.798C179.735 107.147 178.91 107.274 178.099 107.166C177.288 107.057 176.524 106.717 175.896 106.186C174.18 104.443 174.831 100.91 177.364 98.1945C177.435 98.3867 177.53 98.603 177.601 98.7953C178.607 101.319 179.542 103.842 180.276 106.15C180.347 106.378 180.406 106.582 180.477 106.798Z" fill="#F4AF90"/>
<path d="M602.07 49.3587V228.744H350.144V49.3587C350.144 44.5591 352.023 39.956 355.366 36.5621C358.709 33.1683 363.244 31.2616 367.972 31.2616H584.314C589.031 31.2775 593.549 33.1916 596.877 36.5841C600.206 39.9766 602.073 44.5706 602.07 49.3587V49.3587Z" stroke="#EDEDED" stroke-width="2" stroke-linecap="round" stroke-linejoin="round"/>
<path d="M602.07 49.3587V50.1638H350.144V49.3587C350.144 44.5591 352.023 39.956 355.366 36.5621C358.709 33.1683 363.244 31.2616 367.972 31.2616H584.314C589.031 31.2775 593.549 33.1916 596.877 36.5841C600.206 39.9766 602.073 44.5706 602.07 49.3587V49.3587Z" stroke="#DDDDDD" stroke-width="2" stroke-linecap="round" stroke-linejoin="round"/>
<path d="M568.014 40.7188C568.014 41.3705 567.823 42.0075 567.466 42.5493C567.109 43.091 566.602 43.513 566.009 43.7618C565.415 44.0107 564.762 44.0752 564.133 43.9472C563.503 43.8191 562.926 43.5044 562.472 43.0427C562.019 42.581 561.711 41.9932 561.588 41.3537C561.464 40.7142 561.53 40.0518 561.777 39.4504C562.024 38.849 562.442 38.3356 562.977 37.9752C563.512 37.6149 564.14 37.4238 564.782 37.4262C565.207 37.4262 565.629 37.5114 566.021 37.6771C566.414 37.8427 566.771 38.0854 567.071 38.3913C567.371 38.6972 567.609 39.0603 567.771 39.4597C567.933 39.8591 568.015 40.2869 568.014 40.7188V40.7188Z" fill="#EDEDED"/>
<path d="M578.596 40.7188C578.596 41.37 578.406 42.0065 578.05 42.548C577.693 43.0895 577.187 43.5115 576.594 43.7607C576.001 44.0099 575.349 44.0751 574.72 43.948C574.091 43.821 573.513 43.5074 573.059 43.0469C572.606 42.5865 572.297 41.9998 572.172 41.3611C572.047 40.7224 572.111 40.0604 572.356 39.4587C572.602 38.8571 573.017 38.3429 573.551 37.9811C574.084 37.6193 574.711 37.4262 575.353 37.4262C576.213 37.4262 577.038 37.7731 577.646 38.3906C578.255 39.008 578.596 39.8455 578.596 40.7188V40.7188Z" fill="#DDDDDD"/>
<path d="M589.167 40.7188C589.167 41.37 588.977 42.0065 588.621 42.548C588.264 43.0895 587.758 43.5115 587.165 43.7607C586.572 44.0099 585.92 44.0751 585.291 43.948C584.662 43.821 584.084 43.5074 583.63 43.0469C583.177 42.5865 582.868 41.9998 582.743 41.3611C582.617 40.7224 582.682 40.0604 582.927 39.4587C583.173 38.8571 583.588 38.3429 584.122 37.9811C584.655 37.6193 585.282 37.4262 585.924 37.4262C586.784 37.4262 587.609 37.7731 588.217 38.3906C588.826 39.008 589.167 39.8455 589.167 40.7188V40.7188Z" fill="#EDEDED"/>
<path d="M355.519 127.347C354.868 119.848 387.48 105.633 392.866 116.604L382.212 127.347C382.212 127.347 360.206 136.203 355.519 127.347Z" fill="#93BEE5"/>
<path d="M371.476 73.7165C366.741 58.7678 366.385 56.8932 369.558 55.7756C372.73 54.6581 380.768 71.6376 381.68 73.7165C384.864 80.2598 387.318 87.1441 388.995 94.241C390.404 100.874 392.25 116.147 392.546 119.824C393.801 135.35 368.587 140.073 367.486 127.996C366.385 115.919 366.303 112.014 366.303 112.014C366.303 112.014 353.281 113.215 351.458 103.386C349.635 93.556 350.144 80.0733 350.144 80.0733C350.144 80.0733 330.352 76.7447 331.039 71.4454C331.725 66.146 370.458 76.8529 370.458 76.8529L371.476 73.7165Z" fill="#B25E47"/>
<path d="M350.144 80.073C350.144 80.073 330.352 76.7444 331.039 71.445C331.725 66.1457 370.458 76.8525 370.458 76.8525L371.476 73.7522C366.741 58.8035 366.385 56.9289 369.558 55.8113C372.73 54.6938 380.768 71.6733 381.68 73.7522" stroke="#934735" stroke-width="0.75" stroke-linecap="round" stroke-linejoin="round"/>
<path d="M370.458 76.8168C368.757 83.4414 369.029 90.4289 371.239 96.8967" stroke="#934735" stroke-width="0.75" stroke-linecap="round" stroke-linejoin="round"/>
<path d="M361.189 65.3529C364.29 66.9872 366.741 67.3357 367.664 62.8414C368.587 58.3472 364.219 58.239 362.811 58.4794C360.644 58.8399 359.851 64.6439 361.189 65.3529Z" fill="#683F1D"/>
<path d="M361.769 64.1993C361.283 65.9514 360.887 67.7284 360.585 69.5227C361.094 69.7871 364.136 70.8325 364.539 69.7871C365.003 67.952 365.332 66.0842 365.521 64.1993H361.769Z" fill="#683F1D"/>
<path d="M358.999 71.0128C357.377 78.379 348.996 118.755 348.712 120.077C348.428 121.399 348.807 127.503 349.316 127.731C349.825 127.96 352.749 123.598 353.814 121.387C354.879 119.176 364.302 74.8701 364.882 72.8032C366.326 67.7682 360.064 66.1941 358.999 71.0128Z" fill="#683F1D"/>
<path d="M351.624 93.9285C347.564 94.8779 346.416 98.8073 349.41 101.415C352.63 104.227 360.561 102.977 360.928 99.3841C361.295 95.7911 355.01 93.1475 351.624 93.9285Z" fill="#B25E47" stroke="#934735" stroke-width="0.75" stroke-linecap="round" stroke-linejoin="round"/>
<path d="M351.257 87.4876C347.09 86.8627 346.072 91.0926 349.044 94.3371C352.015 97.5816 361.828 98.3146 362.384 94.4573C362.941 90.5999 353.814 87.8721 351.257 87.4876Z" fill="#B25E47" stroke="#934735" stroke-width="0.75" stroke-linecap="round" stroke-linejoin="round"/>
<path d="M347.564 80.2656C352.796 79.0639 364.136 86.8147 363.675 89.23C363.118 92.2702 357.756 92.7269 350.204 89.4704C343.113 86.4181 345.007 80.8785 347.564 80.2656Z" fill="#B25E47" stroke="#934735" stroke-width="0.75" stroke-linecap="round" stroke-linejoin="round"/>
<path d="M599.43 138.823C583.189 138.018 569.742 152.882 565.575 169.97C565.457 170.451 565.35 170.967 565.255 171.532C564.812 174.162 564.5 176.813 564.32 179.475C562.592 202.03 564.225 246.889 564.391 247.97C564.45 248.343 552.897 247.97 536.869 247.201C530.95 246.925 524.463 246.624 517.692 246.276C483.269 244.557 442.382 242.238 442.382 242.238L439.896 214.167C439.896 214.167 434.747 223.012 417.133 240.28C399.518 257.547 371.357 247.922 374.387 226.208C376.281 212.569 384.213 202.595 393.825 185.892C396.796 180.725 399.933 174.921 403.082 168.155C407.296 159.167 411.368 150.587 415.298 142.836C417.014 139.424 418.707 136.167 420.352 133.115C426.532 121.543 432.072 112.783 436.534 108.685C449.946 96.3559 478.688 103.458 486.347 105.957C497.756 109.727 509.596 111.993 521.575 112.699C538.562 113.9 564.356 121.339 578.016 126.169C585.895 128.855 593.147 133.153 599.324 138.799L599.43 138.823Z" fill="#A7CAF0"/>
<path d="M610.865 164.406C595.997 149.265 573.423 142.656 550.766 163.205C524.416 187.034 504.198 191.179 474.556 156.379C453.119 131.144 445.685 124.787 420.353 133.163C426.532 121.591 432.072 112.831 436.534 108.733C449.946 96.404 478.688 103.506 486.347 106.005C497.758 109.759 509.598 112.009 521.575 112.699C538.562 113.9 564.356 121.339 578.016 126.169C585.895 128.855 593.147 133.153 599.324 138.799C605.266 143.557 608.735 153.075 610.865 164.406Z" fill="#C3DCF8"/>
<path d="M414.872 207.714C405.402 218.145 396.891 195.529 393.825 185.892C396.796 180.725 399.933 174.921 403.082 168.155C407.296 159.167 411.368 150.587 415.298 142.836C422.282 153.651 412.848 163.601 412.185 168.504C410.456 181.614 428.449 192.742 414.872 207.714Z" fill="#93BEE5"/>
<path d="M355.519 127.347C370.15 130.483 392.866 116.604 392.866 116.604C392.866 116.604 405.378 173.335 408.645 185.916C411.912 198.498 432.817 247.778 392.073 249.797C365.924 251.095 364.172 200.637 362.621 184.029C361.07 167.422 355.519 127.347 355.519 127.347Z" fill="#A7CAF0"/>
<path d="M365.214 133.836C376.471 134.641 389.007 126.95 389.007 126.95" stroke="#83ADDF" stroke-width="0.75" stroke-linecap="round" stroke-linejoin="round"/>
<path d="M392.866 116.604C392.866 116.604 405.378 173.335 408.645 185.916C410.433 192.778 417.464 210.562 416.872 225.643" stroke="#83ADDF" stroke-width="0.75" stroke-linecap="round" stroke-linejoin="round"/>
<path d="M474.557 115.15C481.848 128.885 501.191 142.091 524.534 123.862C524.534 123.862 527.044 116.292 526.784 116.292C526.523 116.292 477.859 110.283 477.859 110.283L474.557 115.15Z" fill="white"/>
<path d="M493.769 98.1824C487.755 96.8005 479.043 98.3507 473.029 107.724C467.016 117.097 466.247 124.823 466.59 124.739C466.933 124.655 476.06 118.803 480.144 119.236C484.228 119.668 493.378 122.408 493.378 122.408L493.769 98.1824Z" fill="#FED81D"/>
<path d="M520.865 100.934C520.865 100.934 534.158 101.018 535.934 110.476C537.709 119.933 532.809 131.276 526.795 136.516C520.782 141.755 524.085 128.945 502.493 122.937L520.865 100.934Z" fill="#FED81D"/>
<path d="M527.352 111.99C527.352 111.99 519.965 123.381 503.511 123.634C487.057 123.886 483.896 113.936 483.896 113.936C485.684 109.418 487.826 99.7806 489.199 93.0273C490.075 88.7614 490.644 85.637 490.644 85.637C490.644 85.637 493.366 58.8879 521.611 60.4982L522.096 64.8842L527.352 111.99Z" fill="#B25E47"/>
<path d="M489.199 93.2917C490.075 89.0378 490.644 85.9014 490.644 85.9014L506.719 78.2468C506.719 78.2468 509.264 96.8967 489.199 93.2917Z" fill="#914839"/>
<path d="M439.896 214.167C437.623 187.827 437.623 166.497 437.623 166.497" stroke="#83ADDF" stroke-width="0.75" stroke-linecap="round" stroke-linejoin="round"/>
<path d="M547.227 278.228C545.848 277.718 544.532 277.044 543.309 276.221C535.022 270.706 534.371 259.963 536.869 247.153C538.81 237.347 542.622 226.34 546.339 215.549C550.589 203.244 554.744 191.239 555.916 181.626C556.081 180.28 556.176 178.994 556.223 177.769C556.45 170.397 557.779 163.104 560.165 156.139C566.96 136.744 581.769 124.535 599.383 138.823C605.219 143.557 608.687 153.074 610.818 164.406C611.576 168.456 612.167 172.746 612.653 177.12C614.263 191.972 614.499 207.942 615.221 219.839C618.785 277.435 605.183 300.435 547.227 278.228Z" fill="#A7CAF0"/>
<path d="M610.865 164.406C598.069 151.38 579.543 144.663 560.189 156.115C566.984 136.72 581.792 124.511 599.407 138.799C605.266 143.557 608.735 153.075 610.865 164.406Z" fill="#C3DCF8"/>
<path d="M564.391 247.922C564.45 248.295 552.897 247.922 536.869 247.153C530.95 246.877 524.463 246.576 517.692 246.228C506.115 240.94 498.918 233.286 505.085 222.315C521.871 192.501 552.708 233.803 554.318 204.29C555.407 184.054 560.236 179.655 564.32 179.523C562.592 202.03 564.19 246.889 564.391 247.922Z" fill="#93BEE5"/>
<path d="M568.333 161.174C566.033 167.015 564.678 173.195 564.32 179.475C562.781 202.042 564.225 246.889 564.391 247.97" stroke="#83ADDF" stroke-width="0.75" stroke-linecap="round" stroke-linejoin="round"/>
<path d="M547.227 278.228C545.848 277.718 544.533 277.044 543.309 276.221C556.59 279.117 576.454 281.725 585.202 274.142C598.992 262.222 590.233 246.937 597.856 238.525C605.479 230.113 616.476 227.398 612.7 177.156C614.31 192.009 614.547 207.979 615.269 219.875C618.785 277.435 605.183 300.435 547.227 278.228Z" fill="#93BEE5"/>
<path d="M514.011 177.12C516.118 167.507 504.21 167.927 504.21 167.927C505.263 159.059 493.686 156.595 491.011 165.259C481.6 162.375 478.629 165.259 477.255 170.282L514.011 177.12Z" fill="#DDDDDD"/>
<path d="M497.959 168.852C499.509 168.852 500.765 167.577 500.765 166.004C500.765 164.432 499.509 163.157 497.959 163.157C496.41 163.157 495.154 164.432 495.154 166.004C495.154 167.577 496.41 168.852 497.959 168.852Z" fill="#F9F9F9" stroke="#DDDDDD" stroke-linecap="round" stroke-linejoin="round"/>
<path d="M459.381 163.145L441.814 259.843L511.56 274.142L530.299 177.312L459.381 163.145Z" fill="#F9F9F9" stroke="#DDDDDD" stroke-linecap="round" stroke-linejoin="round"/>
<path d="M480.866 227.217C477.315 236.626 477.102 246.516 478.735 249.821C478.735 249.821 485.388 251.083 492.041 232.757L480.866 227.217Z" fill="#93BEE5"/>
<path d="M489.898 209.024C473.941 203.46 466.318 200.096 463.441 199.303C460.565 198.51 450.171 197.62 448.514 199.303C446.857 200.985 446.738 203.124 447.33 205.311C447.922 207.498 446.147 209.192 445.898 211.452C445.649 213.711 448.325 214.396 447.78 216.643C447.236 218.89 445.413 221.353 446.667 223.853C447.922 226.352 445.484 228.9 447.78 231.928C450.077 234.956 473.61 236.422 478.771 235.305L488.904 239.907C488.904 239.907 506.731 221.317 489.898 209.024Z" fill="#B25E47"/>
<path d="M463.441 199.303C460.565 198.522 450.171 197.62 448.514 199.303C446.857 200.985 446.738 203.124 447.33 205.311C447.922 207.498 446.147 209.192 445.898 211.452C445.649 213.711 448.325 214.396 447.78 216.643C447.236 218.89 445.413 221.353 446.667 223.853C447.922 226.352 445.484 228.9 447.78 231.928" stroke="#934735" stroke-width="0.75" stroke-linecap="round" stroke-linejoin="round"/>
<path d="M585.213 274.13C581.058 281.749 570.665 285.414 550.885 279.37C545.558 277.735 540.42 276.041 535.496 274.323C527.352 271.487 519.835 268.591 513.099 265.815C501.363 261.079 489.874 255.737 478.676 249.809C481.651 246.479 484.052 242.664 485.778 238.525C486.855 236.075 487.742 233.544 488.43 230.955C490.269 223.798 490.762 216.354 489.886 209.012C492.573 209.829 495.461 210.67 498.504 211.512C505.855 213.554 514.094 215.669 522.439 217.892C547.452 224.586 573.471 232.252 579.804 241.782C580.384 242.659 580.987 243.536 581.461 244.449C581.662 244.81 581.875 245.17 582.065 245.543C582.123 245.635 582.174 245.731 582.218 245.831C582.455 246.264 582.68 246.708 582.893 247.141C583.296 247.922 583.651 248.703 583.994 249.484C587.723 258.16 588.776 267.605 585.213 274.13Z" fill="#A7CAF0"/>
<path d="M489.898 209.024C518.545 217.784 570.488 227.77 579.863 241.794C581.489 244.226 582.891 246.804 584.053 249.496" stroke="#83ADDF" stroke-width="0.75" stroke-linecap="round" stroke-linejoin="round"/>
<path d="M498.504 211.512C500.279 229.741 491.011 247.237 491.011 247.237" stroke="#83ADDF" stroke-width="0.75" stroke-linecap="round" stroke-linejoin="round"/>
<path d="M585.202 274.142C581.047 281.761 570.653 285.426 550.873 279.382C545.546 277.747 540.409 276.053 535.484 274.335C547.097 277.435 574.453 283.431 585.202 274.142Z" fill="#93BEE5"/>
<path d="M521.575 60.7265L522.06 65.1006C512.058 80.9385 498.386 85.9254 490.608 85.8533C477.753 82.5968 473.361 70.8445 472.615 58.215C472.432 55.2218 472.432 52.2198 472.615 49.2265C473.19 40.672 474.609 32.1978 476.853 23.9315C476.853 23.9315 515.467 5.69017 518.142 42.305C518.142 42.305 526.429 40.7668 527.956 50.1158C529.258 57.8786 521.575 60.7265 521.575 60.7265Z" fill="#B25E47"/>
<path d="M478.818 49.2746C479.668 49.2746 480.357 48.5752 480.357 47.7125C480.357 46.8497 479.668 46.1503 478.818 46.1503C477.968 46.1503 477.279 46.8497 477.279 47.7125C477.279 48.5752 477.968 49.2746 478.818 49.2746Z" fill="#683F1D"/>
<path d="M489.567 47.2799C490.416 47.2799 491.105 46.5804 491.105 45.7177C491.105 44.8549 490.416 44.1555 489.567 44.1555C488.717 44.1555 488.028 44.8549 488.028 45.7177C488.028 46.5804 488.717 47.2799 489.567 47.2799Z" fill="#683F1D"/>
<path d="M487.246 37.294C487.412 39.433 494.609 40.2621 495.024 39.0484C495.604 37.2219 486.832 32.283 487.246 37.294Z" fill="#604730"/>
<path d="M473.503 40.4904C473.503 41.6921 481.328 42.1848 481.044 38.0871C480.854 35.119 473.669 37.27 473.503 40.4904Z" fill="#604730"/>
<path d="M516.142 53.913C519.362 49.1064 524.428 49.6111 524.984 50.5243" stroke="#934735" stroke-width="0.75" stroke-linecap="round" stroke-linejoin="round"/>
<path d="M517.515 52.2667C522.25 49.4308 524.854 55.7876 518.841 55.7876" stroke="#934735" stroke-width="0.75" stroke-linecap="round" stroke-linejoin="round"/>
<path d="M482.973 43.1701C484.275 45.7297 484.157 47.2798 483.304 48.9261C482.452 50.5724 479.836 54.3216 481.197 57.6502" stroke="#934735" stroke-width="0.75" stroke-linecap="round" stroke-linejoin="round"/>
<path d="M491.401 58.215C490.218 62.1925 485.554 64.68 483.387 64.2233C483.387 64.2233 485.625 70.3879 489.567 68.8137C494.1 66.9511 491.401 58.215 491.401 58.215Z" fill="white" stroke="#934735" stroke-width="0.75" stroke-linecap="round" stroke-linejoin="round"/>
<path d="M515.431 59.5729C516.318 60.2073 517.328 60.6427 518.393 60.8499C519.459 61.0571 520.556 61.0314 521.611 60.7746" stroke="#934735" stroke-width="0.75" stroke-linecap="round" stroke-linejoin="round"/>
<path d="M529.471 38.5678C533.898 44.7443 527.233 47.424 527.233 47.424C526.561 46.4126 525.67 45.5702 524.629 44.9606C523.975 44.5688 523.244 44.3286 522.488 44.2574C521.732 44.1862 520.969 44.2856 520.255 44.5486C519.541 44.8116 518.894 45.2317 518.359 45.7786C517.823 46.3256 517.414 46.986 517.16 47.7124C508.08 47.9047 511.999 40.7067 511.999 40.7067C503.854 44.0113 503.594 35.5396 507.098 31.7183C500.741 38.9283 492.668 31.7183 493.982 25.1932C491.733 32.3191 483.719 32.5955 484.784 26.6833C484.096 27.898 483.261 29.0203 482.298 30.0239C476.794 35.6477 471.846 29.6394 473.929 25.2172C465.643 33.2203 462.092 24.2679 469.964 19.4613C463.725 14.2701 471.147 6.86779 476.131 10.7131C474.947 1.49634 484.323 1.09979 488.43 6.47124C490.04 -3.64679 502.493 1.88087 502.99 6.67552C512.164 0.162488 519.267 4.95714 518.379 15.5438C522.084 10.5088 530.027 13.4649 526.973 26.3588C534.596 25.8061 535.887 35.4074 529.471 38.5678Z" fill="#604730"/>
<path d="M524.629 44.9606C523.975 44.5688 523.244 44.3286 522.488 44.2574C521.731 44.1862 520.969 44.2857 520.255 44.5487C519.541 44.8117 518.894 45.2317 518.358 45.7787C517.823 46.3256 517.414 46.986 517.16 47.7125C508.08 47.9047 511.998 40.7067 511.998 40.7067C503.854 44.0113 503.594 35.5396 507.098 31.7183C500.741 38.9283 492.668 31.7183 493.982 25.1932C491.733 32.3191 483.719 32.5955 484.784 26.6833C484.096 27.898 483.261 29.0203 482.298 30.0239C480.073 23.1864 485.056 14.1619 492.668 18.2476C493.674 12.744 506.115 9.175 506.044 23.0543C510.649 16.5292 521.078 18.7643 516.142 31.2136C520.024 28.2695 528.95 33.3645 524.629 44.9606Z" fill="#473526"/>
<path d="M507.903 47.376C509.004 49.6111 506.932 52.9157 503.286 54.7782C499.64 56.6408 495.781 56.3284 494.68 54.0933C493.579 51.8582 495.639 48.5536 499.297 46.691C502.955 44.8284 506.802 45.1409 507.903 47.376Z" fill="#A0503D"/>
<path d="M477.445 55.8718C476.877 57.4459 474.971 58.2751 472.627 58.2751C472.444 55.2818 472.444 52.2799 472.627 49.2866C476.107 50.7887 478.25 53.6367 477.445 55.8718Z" fill="#A0503D"/>
<path d="M510.448 306.852V486.237H258.475V306.852C258.467 304.475 258.922 302.119 259.815 299.922C260.707 297.724 262.019 295.727 263.675 294.046C265.331 292.365 267.298 291.033 269.463 290.127C271.628 289.221 273.948 288.759 276.29 288.767H492.632C494.974 288.759 497.294 289.221 499.459 290.127C501.624 291.033 503.591 292.365 505.247 294.046C506.903 295.727 508.215 297.724 509.108 299.922C510 302.119 510.456 304.475 510.448 306.852Z" stroke="#EDEDED" stroke-width="2" stroke-linecap="round" stroke-linejoin="round"/>
<path d="M510.448 306.852V307.669H258.475V306.852C258.467 304.475 258.922 302.119 259.815 299.922C260.707 297.724 262.019 295.727 263.675 294.046C265.331 292.365 267.298 291.033 269.463 290.127C271.628 289.221 273.948 288.759 276.29 288.767H492.632C494.974 288.759 497.294 289.221 499.459 290.127C501.624 291.033 503.591 292.365 505.247 294.046C506.903 295.727 508.215 297.724 509.108 299.922C510 302.119 510.456 304.475 510.448 306.852Z" stroke="#DDDDDD" stroke-width="2" stroke-linecap="round" stroke-linejoin="round"/>
<path d="M476.344 298.212C476.344 298.863 476.154 299.5 475.797 300.041C475.441 300.583 474.934 301.005 474.342 301.254C473.749 301.503 473.097 301.568 472.468 301.441C471.838 301.314 471.261 301.001 470.807 300.54C470.353 300.08 470.044 299.493 469.919 298.854C469.794 298.216 469.858 297.554 470.104 296.952C470.349 296.35 470.765 295.836 471.298 295.474C471.832 295.112 472.459 294.919 473.1 294.919C473.961 294.919 474.786 295.266 475.394 295.884C476.002 296.501 476.344 297.339 476.344 298.212V298.212Z" fill="#EDEDED"/>
<path d="M483.671 301.504C485.463 301.504 486.915 300.03 486.915 298.212C486.915 296.393 485.463 294.919 483.671 294.919C481.88 294.919 480.428 296.393 480.428 298.212C480.428 300.03 481.88 301.504 483.671 301.504Z" fill="#DDDDDD"/>
<path d="M494.254 301.504C496.045 301.504 497.498 300.03 497.498 298.212C497.498 296.393 496.045 294.919 494.254 294.919C492.463 294.919 491.011 296.393 491.011 298.212C491.011 300.03 492.463 301.504 494.254 301.504Z" fill="#EDEDED"/>
<path d="M273.331 393.516C266.134 371.886 264.441 360.206 266.406 358.536C267.59 357.478 269.566 356.697 269.72 354.558C269.874 352.419 267.459 345.233 275.888 343.551C275.888 343.551 278.741 326.595 281.451 318.652C281.451 318.652 296.509 379.493 297.562 384.059C298.616 388.625 278.22 408.273 273.331 393.516Z" fill="#FEBD9D"/>
<path d="M275.888 343.551C275.337 346.273 274.942 349.026 274.704 351.794" stroke="#EF8A66" stroke-width="0.75" stroke-linecap="round" stroke-linejoin="round"/>
<path d="M265.885 364.928C265.447 361.323 265.66 359.184 266.418 358.536C267.601 357.478 269.578 356.697 269.732 354.558C269.886 352.419 267.471 345.233 275.9 343.551C275.9 343.551 278.752 326.595 281.463 318.652" stroke="#EF8A66" stroke-width="0.75" stroke-linecap="round" stroke-linejoin="round"/>
<path d="M346.539 282.261L280.573 301.147C276.722 302.25 274.481 306.312 275.567 310.221L288.372 356.31C289.458 360.219 293.46 362.494 297.311 361.392L363.276 342.506C367.127 341.403 369.369 337.341 368.282 333.432L355.478 287.343C354.392 283.434 350.39 281.159 346.539 282.261Z" fill="#F9F9F9" stroke="#DDDDDD" stroke-linecap="round" stroke-linejoin="round"/>
<path d="M343.279 288.991L286.838 305.15C284.29 305.88 282.807 308.568 283.525 311.155L294.678 351.299C295.397 353.886 298.045 355.391 300.594 354.662L357.035 338.503C359.583 337.773 361.067 335.085 360.348 332.498L349.195 292.354C348.476 289.767 345.828 288.261 343.279 288.991Z" stroke="#EDEDED" stroke-linecap="round" stroke-linejoin="round"/>
<path d="M326.919 327.833C326.937 328.173 326.937 328.514 326.919 328.854C326.736 331.44 325.846 333.922 324.35 336.023C322.855 338.124 320.812 339.76 318.452 340.748C316.091 341.737 313.506 342.038 310.987 341.618C308.467 341.199 306.112 340.075 304.187 338.373C302.261 336.671 300.84 334.458 300.084 331.982C299.328 329.506 299.267 326.865 299.906 324.356C300.546 321.847 301.862 319.568 303.706 317.775C305.55 315.982 307.849 314.746 310.347 314.206C311.279 313.991 312.232 313.887 313.188 313.894C314.993 313.892 316.78 314.251 318.448 314.951C320.116 315.651 321.632 316.677 322.909 317.971C324.187 319.266 325.2 320.803 325.892 322.495C326.584 324.187 326.941 326.001 326.943 327.833H326.919Z" stroke="#EDEDED" stroke-linecap="round" stroke-linejoin="round"/>
<path d="M326.872 328.818C326.707 331.131 325.977 333.366 324.748 335.321C323.518 337.275 321.828 338.888 319.831 340.012C317.833 341.137 315.591 341.739 313.307 341.763C311.022 341.787 308.768 341.233 306.748 340.15C309.411 334.682 313.128 326.932 313.128 326.932L326.872 328.818Z" stroke="#EDEDED" stroke-linecap="round" stroke-linejoin="round"/>
<path d="M326.919 327.833C326.937 328.173 326.937 328.514 326.919 328.854L313.211 327.004L323.581 318.676C325.75 321.217 326.937 324.471 326.919 327.833V327.833Z" stroke="#EDEDED" stroke-linecap="round" stroke-linejoin="round"/>
<path d="M323.534 318.676L313.164 327.004C313.164 327.004 311.388 319.277 310.323 314.206C311.255 313.991 312.208 313.887 313.164 313.894C315.129 313.891 317.071 314.317 318.86 315.142C320.649 315.967 322.243 317.172 323.534 318.676V318.676Z" fill="#DDDDDD" stroke="#DDDDDD" stroke-linecap="round" stroke-linejoin="round"/>
<path d="M342.533 322.714C345.125 321.789 342.734 320.443 344.451 319.698C346.96 318.616 347.777 302.874 336.626 306.107C328.174 308.51 334.329 322.51 338.473 321.224C339.597 320.875 339.562 323.783 342.533 322.714Z" fill="#F9F9F9" stroke="#DDDDDD" stroke-linecap="round" stroke-linejoin="round"/>
<path d="M339.491 311.178C338.39 313.185 339.266 314.591 341.065 315.264C344.084 316.405 339.597 319.998 338.615 318.027C337.537 315.864 343.433 317.306 342.166 322.161" stroke="#DDDDDD" stroke-linecap="round" stroke-linejoin="round"/>
<path d="M341.207 325.934C341.965 327.773 342.9 328.097 344.332 327.677C345.764 327.256 345.824 326.247 345.445 324.781L341.207 325.934Z" fill="#F9F9F9" stroke="#EDEDED" stroke-linecap="round" stroke-linejoin="round"/>
<path d="M339.988 324.769C340.674 323.567 344.723 322.834 345.291 322.966C345.859 323.098 346.368 324.769 345.622 325.201C344.059 325.91 342.391 326.352 340.686 326.511C340.515 326.46 340.358 326.371 340.226 326.25C340.094 326.128 339.99 325.978 339.923 325.811C339.856 325.643 339.827 325.463 339.838 325.282C339.849 325.102 339.9 324.926 339.988 324.769Z" fill="#F9F9F9" stroke="#EDEDED" stroke-linecap="round" stroke-linejoin="round"/>
<path d="M339.207 322.534C339.94 321.332 344.297 320.587 344.853 320.731C345.587 320.911 346.037 322.534 345.22 322.954C343.542 323.666 341.765 324.108 339.952 324.264C339.779 324.218 339.618 324.133 339.482 324.015C339.345 323.897 339.237 323.749 339.166 323.583C339.094 323.416 339.06 323.235 339.067 323.053C339.074 322.872 339.122 322.694 339.207 322.534Z" fill="#F9F9F9" stroke="#EDEDED" stroke-linecap="round" stroke-linejoin="round"/>
<path d="M325.321 310.12L328.92 310.359" stroke="#EDEDED" stroke-linecap="round" stroke-linejoin="round"/>
<path d="M332.4 298.993L333.974 302.514" stroke="#EDEDED" stroke-linecap="round" stroke-linejoin="round"/>
<path d="M344.699 299.918L343.432 302.514" stroke="#EDEDED" stroke-linecap="round" stroke-linejoin="round"/>
<path d="M284.138 352.984C279.131 362.08 283.097 372.98 289.146 375.948C295.195 378.916 297.692 360.074 298.414 355.315C299.137 350.556 299.148 343.359 299.669 339.754C300.19 336.149 296.852 333.301 294.662 338.804C292.472 344.308 291.43 347.673 291.43 347.673L284.138 352.984Z" fill="#FEBD9D"/>
<path d="M298.414 355.315C299.148 350.508 299.148 343.359 299.669 339.754C300.19 336.149 296.852 333.301 294.662 338.804C292.472 344.308 291.43 347.673 291.43 347.673L284.138 352.984" stroke="#EF8A66" stroke-width="0.75" stroke-linecap="round" stroke-linejoin="round"/>
<path d="M445.815 317.595L441.79 369.266L397.707 373.484C401.484 361.311 404.524 348.915 406.81 336.365C407.805 330.945 408.704 325.189 409.391 319.313L425.632 318.556L445.815 317.595Z" fill="#FEBD9D"/>
<path d="M429.243 323.423C427.443 330.513 417.583 335.536 406.881 336.341C407.876 330.921 408.775 325.165 409.462 319.289L425.703 318.532C428.248 319.674 429.74 321.26 429.243 323.423Z" fill="#F4A789"/>
<path d="M514.283 373.46V493.687H505.097C505.097 493.687 499.676 471.877 476.332 426.165C476.332 426.165 475.882 428.196 474.971 431.717C473.716 436.596 471.573 444.311 468.531 453.479C463.402 469.248 456.798 484.482 448.81 498.974C431.967 506.299 414.202 511.208 396.027 513.563C395.529 513.563 395.02 513.695 394.511 513.743C376.4 516.014 355.377 516.026 334.045 510.45C320.799 507.044 308.158 501.558 296.58 494.192C297.219 493.134 326.02 435.899 334.992 417.489C335.691 416.059 336.389 414.665 337.099 413.283C345.528 396.929 355.637 384.215 382.934 373.46C389.267 370.985 394.831 368.786 399.708 366.863C417.689 359.785 426.65 356.288 432.143 354.63C436.025 353.461 439.715 352.367 443.211 351.35C476.853 341.544 493.544 339.249 507.69 361.155C510.174 365.092 512.378 369.204 514.283 373.46V373.46Z" fill="#FED81D"/>
<path d="M507.69 361.155C496.042 360.434 481.387 363.691 473.101 382.208C457.795 416.384 427.585 430.696 405.437 408.789C388.036 391.593 358.383 393.829 337.099 413.284C345.528 396.929 355.637 384.215 382.934 373.46C389.267 370.985 394.831 368.786 399.708 366.863C417.689 359.785 426.65 356.288 432.143 354.63C436.025 353.461 439.715 352.367 443.211 351.35C476.853 341.544 493.544 339.249 507.69 361.155Z" fill="#FFE05C"/>
<path d="M514.283 461.194V493.639H505.097C505.097 493.639 499.676 471.829 476.332 426.117C477.67 420.842 478.7 415.759 479.528 411.253C494.609 417.958 495.899 432.15 494.254 440.165C492.727 447.627 500.481 465.916 514.283 461.194Z" fill="#FCC71F"/>
<path d="M388.699 434.373C386.332 446.942 376.021 468.981 357.614 500.464C354.785 505.031 351.573 509.341 348.014 513.346C343.312 512.628 338.65 511.665 334.045 510.462L339.869 493.699C343.172 480.733 349.339 474.953 362.621 472.357C374.411 470.038 364.539 433.435 388.699 434.373Z" fill="#FCC71F"/>
<path d="M329.393 532.693C329.393 532.693 339.372 523.416 348.014 513.334C351.573 509.329 354.785 505.019 357.614 500.452C376.021 468.981 386.32 446.942 388.699 434.361C389.441 430.467 389.421 427.483 388.64 425.408" stroke="#F7AD2B" stroke-width="0.75" stroke-linecap="round" stroke-linejoin="round"/>
<path d="M481.872 394.802C481.872 394.802 481.245 401.711 479.505 411.301C478.7 415.807 477.646 420.914 476.308 426.165" stroke="#F7AD2B" stroke-width="0.75" stroke-linecap="round" stroke-linejoin="round"/>
<path d="M339.858 466.71C340.296 495.61 307.802 524.75 289.986 488.988C282.54 474.052 263.944 404.343 265.246 394.802C266.43 386.306 290.91 367.392 300.96 371.093C300.96 371.093 305.162 382.317 310.939 396.64C318.29 414.87 328.186 438.158 335.146 449.718C338.187 454.852 339.814 460.72 339.858 466.71V466.71Z" fill="#FED81D"/>
<path d="M326.919 433.832C323.06 441.583 318.633 450.511 314.3 459.067C311.353 453.599 310.82 445.548 317.094 438.038C325.072 428.509 300.095 411.878 310.939 396.616C315.697 408.441 321.521 422.344 326.919 433.832Z" fill="#FCC71F"/>
<path d="M327.073 433.532C327.073 433.628 326.966 433.724 326.919 433.832C323.06 441.583 318.633 450.511 314.3 459.067L310.24 467.154" stroke="#F7AD2B" stroke-width="0.75" stroke-linecap="round" stroke-linejoin="round"/>
<path d="M398.252 292.864C392.333 314.555 387.066 326.427 423.513 328.854C423.513 328.854 446.644 302.418 443.495 264.036C443.495 264.036 422.886 247.213 405.035 279.983C405.035 279.983 398.489 282.53 397.743 283.431C396.997 284.333 397.494 289.932 398.252 292.864Z" fill="#FEBD9D"/>
<path d="M405.035 279.983C405.035 279.983 398.489 282.53 397.743 283.431C396.997 284.333 397.494 289.932 398.252 292.864" stroke="#EF8A66" stroke-width="0.75" stroke-linecap="round" stroke-linejoin="round"/>
<path d="M410.018 284.633C410.868 284.633 411.557 283.934 411.557 283.071C411.557 282.208 410.868 281.509 410.018 281.509C409.168 281.509 408.479 282.208 408.479 283.071C408.479 283.934 409.168 284.633 410.018 284.633Z" fill="#5C1A55"/>
<path d="M411.356 270.429C414.41 268.278 419.772 280.8 415.89 280.752C414.327 280.752 407.639 273.049 411.356 270.429Z" fill="#BF8228"/>
<path d="M476.332 376.344C474.533 394.177 465.939 401.279 467.608 407.299C469.277 413.32 473.385 412.01 473.385 412.01C473.385 412.01 470.117 421.623 457.581 417.79C457.581 417.79 446.62 434.781 436.274 422.596C426.922 435.562 407.213 438.218 406.609 420.433C406.609 420.433 414.221 422.368 418.103 417.357C421.986 412.346 422.838 403.995 418.624 399.596C414.41 395.198 408.29 390.8 407.899 383.458C407.509 376.116 412.848 363.234 420.601 353.657C420.601 353.657 389.658 344.801 387.373 371.682L381.194 374.085C381.194 374.085 374.601 370.853 374.754 360.05C374.908 349.247 384.627 341.316 395.21 341.508C405.792 341.7 431.326 337.038 418.885 304.316C418.885 304.316 429.041 308.09 431.693 299.834C434.344 291.579 425.147 287.181 419.855 291.795C419.855 291.795 415.523 285.006 428.367 270.057C426.934 265.322 421.974 264.049 424.105 259.242C425.833 255.372 436.676 255.372 444.821 257.043C446.569 257.395 448.29 257.877 449.97 258.485C454.635 260.168 458.7 263.226 461.642 267.269C463.406 269.66 464.568 272.453 465.027 275.404C466.197 274.916 467.456 274.687 468.721 274.731C471.277 274.827 474.403 276.281 475.515 282.35C477.137 291.134 471.206 295.568 467.229 297.599C466.122 298.157 464.965 298.604 463.772 298.933C464.643 301.684 465.043 304.565 464.956 307.453V307.453C464.906 309.337 464.656 311.21 464.21 313.04C462.518 319.902 458.848 331.847 460.47 340.15C460.648 341.156 460.934 342.139 461.322 343.082C464.648 351.326 478.131 358.511 476.332 376.344Z" fill="#BF8228"/>
<path d="M467.182 297.659C466.075 298.217 464.917 298.664 463.725 298.993C463.725 298.993 458.173 300.363 455.972 290.509C454.208 282.614 458.576 277.291 465.027 275.464C466.197 274.976 467.456 274.747 468.721 274.791C457.049 285.114 462.719 293.501 467.182 297.659Z" fill="#B57724"/>
<path d="M476.332 376.344C474.533 394.177 465.939 401.279 467.608 407.299C469.277 413.32 473.385 412.01 473.385 412.01C473.385 412.01 470.117 421.623 457.581 417.79C457.581 417.79 446.62 434.781 436.274 422.596C426.922 435.562 407.213 438.218 406.609 420.433C406.609 420.433 414.221 422.368 418.103 417.357C421.986 412.346 422.838 403.995 418.624 399.596C414.41 395.198 408.29 390.8 407.899 383.458C407.509 376.116 412.848 363.234 420.601 353.657C420.601 353.657 389.658 344.801 387.373 371.682L381.194 374.085C381.194 374.085 374.601 370.853 374.754 360.05C374.908 349.247 384.627 341.316 395.21 341.508C405.792 341.7 431.326 337.038 418.885 304.316C418.885 304.316 429.041 308.09 431.693 299.834C434.344 291.579 425.147 287.181 419.855 291.795C419.855 291.795 415.523 285.006 428.367 270.057C426.934 265.322 421.974 264.049 424.105 259.242C425.833 255.372 436.676 255.372 444.821 257.043C439.375 260.431 435.729 265.755 438.76 274.082C446.206 294.511 444.11 304.34 437.659 313.065C431.208 321.789 423.916 339.501 430.118 353.657C436.321 367.812 427.206 361.299 429.941 389.31C432.675 417.321 467.584 400.257 466.495 377.438C465.513 356.817 453.19 349.884 460.375 340.186C460.554 341.192 460.839 342.175 461.227 343.118C464.648 351.326 478.131 358.511 476.332 376.344Z" fill="#B57724"/>
<path d="M419.678 296.734C423.063 294.595 426.271 294.787 428.13 296.145" stroke="#EF8A66" stroke-width="0.75" stroke-linecap="round" stroke-linejoin="round"/>
<path d="M419.974 300.086C424.957 302.261 425.893 295.748 421.82 295.664" stroke="#EF8A66" stroke-width="0.75" stroke-linecap="round" stroke-linejoin="round"/>
<path d="M445.685 267.593C451.142 269.324 459.31 278.036 459.31 278.036" stroke="#9B621F" stroke-width="0.75" stroke-linecap="round" stroke-linejoin="round"/>
<path d="M465.027 275.464C458.576 277.279 454.208 282.614 455.972 290.509C458.173 300.363 463.725 298.993 463.725 298.993" stroke="#9B621F" stroke-width="0.75" stroke-linecap="round" stroke-linejoin="round"/>
<path d="M457.925 279.995C462.92 277.964 468.886 277.099 471.159 283.515C473.432 289.932 470.105 294.907 465.027 298.572" stroke="#9B621F" stroke-width="0.75" stroke-linecap="round" stroke-linejoin="round"/>
<path d="M432.794 283.912C442.974 287.012 455.865 286.195 455.865 286.195" stroke="#9B621F" stroke-width="0.75" stroke-linecap="round" stroke-linejoin="round"/>
<path d="M435.599 301.841C444.489 304.064 455.723 297.515 457.499 294.919" stroke="#9B621F" stroke-width="0.75" stroke-linecap="round" stroke-linejoin="round"/>
<path d="M455.676 288.767C457.12 284.729 461.204 282.074 464.234 286.063C467.265 290.053 462.719 294.282 459.037 289.872" stroke="#9B621F" stroke-width="0.75" stroke-linecap="round" stroke-linejoin="round"/>
<path d="M420.613 353.717C429.231 343.395 436.499 335.151 432.806 320.25" stroke="#9B621F" stroke-width="0.75" stroke-linecap="round" stroke-linejoin="round"/>
<path d="M436.345 422.656C441.565 414.557 433.504 402.661 432.273 394.814C431.042 386.967 430.769 377.125 440.476 366.443" stroke="#9B621F" stroke-width="0.75" stroke-linecap="round" stroke-linejoin="round"/>
<path d="M449.449 331.101C456.694 349.811 457.83 352.828 453.9 366.839C449.97 380.851 447.602 387.796 453.9 397.794C460.896 408.873 458.706 412.887 457.57 417.79" stroke="#9B621F" stroke-width="0.75" stroke-linecap="round" stroke-linejoin="round"/>
<path d="M417.322 291.266C417.784 293.814 415.381 296.397 411.972 297.022C408.562 297.647 405.425 296.097 404.964 293.537C404.502 290.978 406.905 288.406 410.314 287.781C413.724 287.157 416.86 288.707 417.322 291.266Z" fill="#F4AF90"/>
<path d="M510.448 336.99V486.237H258.475" stroke="#EDEDED" stroke-width="2" stroke-linecap="round" stroke-linejoin="round"/>
</svg>
